<?xml version="1.0" encoding="UTF-8"?>
<svg id="Base" xmlns="http://www.w3.org/2000/svg" viewBox="0 0 765.09 791.56">
  <defs>
    <style>
      .cls-1 {
        fill: #96f7e4;
      }

      .cls-2 {
        fill: #00bcff;
      }
    </style>
  </defs>
  <g id="RT">
    <path class="cls-1" d="m764.97,403.66c-.73,29.56-4.72,58.72-11.92,87.2-5.24,20.8-12.21,41.24-20.85,61.22-20.54,47.45-49.51,89.78-86.11,125.81-38.15,37.56-82.88,66.53-132.94,86.09-41.6,16.26-87.13,25.67-131.89,27.29-.98.04-1.95.07-2.92.1-3.71.11-7.4.16-11.05.16v.03c-35.01,0-67.29-4.84-91.84-13.86-7.14-2.62-13.57-6.66-18.95-11.79-6.39-6.07-11.31-13.67-14.2-22.24-5.33-15.78-3.23-33.12,5.72-47.16l26.87-42.17,147.56-231.6c16.32-25.62,50.32-33.15,75.94-16.83,25.62,16.32,33.15,50.32,16.83,75.94l-126.68,198.82c25.39-1.89,54.61-7.42,84.56-19.13,71.29-27.87,127.46-82.26,158.15-153.15,30.53-70.52,31.94-147.78,3.98-217.56-27.35-68.25-78.66-122.51-145.03-153.61l26.87-42.17c8.95-14.04,11.05-31.38,5.72-47.16-2.89-8.57-7.81-16.17-14.2-22.24,5.83,2.2,11.62,4.56,17.38,7.05,47.14,20.42,89.3,49.27,125.31,85.75,37.27,37.75,66.22,81.98,86.05,131.46,19.64,49.01,28.94,100.74,27.64,153.75Z"/>
  </g>
  <g id="RT-2" data-name="RT">
    <path class="cls-2" d="m517.07,95.05l-26.87,42.17-147.56,231.6c-16.32,25.62-50.32,33.15-75.94,16.83-25.62-16.32-33.15-50.32-16.83-75.94l126.68-198.82c-25.39,1.89-54.61,7.42-84.56,19.13-71.29,27.87-127.46,82.26-158.15,153.15-30.53,70.52-31.94,147.78-3.98,217.56,27.35,68.25,78.66,122.51,145.03,153.61l-26.87,42.17c-8.95,14.04-11.05,31.38-5.72,47.16,2.89,8.57,7.81,16.17,14.2,22.24-5.83-2.2-11.62-4.56-17.38-7.05-47.14-20.42-89.3-49.27-125.31-85.75-37.27-37.75-66.22-81.98-86.05-131.46C8.12,492.64-1.18,440.91.12,387.9c.73-29.57,4.72-58.72,11.92-87.21,5.24-20.79,12.2-41.23,20.85-61.21,20.54-47.45,49.51-89.78,86.11-125.81,38.15-37.56,82.88-66.53,132.94-86.09C293.54,11.32,339.07,1.91,383.83.29c.98-.04,1.95-.07,2.92-.1,3.71-.11,7.4-.16,11.05-.16V0C432.81,0,465.09,4.84,489.64,13.86c7.15,2.62,13.57,6.66,18.95,11.79,6.39,6.07,11.31,13.67,14.2,22.24,5.33,15.78,3.23,33.12-5.72,47.16Z"/>
  </g>
</svg>